<svg width="16" height="15" viewBox="0 0 16 15" fill="none" xmlns="http://www.w3.org/2000/svg">
<path fill-rule="evenodd" clip-rule="evenodd" d="M6.5663 13.3337C6.65931 13.3337 6.74553 13.2842 6.79257 13.2036L6.79667 13.1966L9.85417 8.23982L9.85417 1.66699L4.13029 1.66699C4.00747 1.66699 3.90125 1.75225 3.87464 1.87199L3.87232 1.88239L2.17235 8.52213C2.1412 8.68307 2.26454 8.83366 2.42951 8.83366L5.02083 8.83366C5.45495 8.83366 5.89423 8.9787 6.21404 9.29084C6.55025 9.61899 6.70612 10.0889 6.60609 10.5953L6.12686 13.021C6.09486 13.1829 6.2188 13.3337 6.38375 13.3337L6.5663 13.3337ZM11.1875 1.66699L11.1875 7.76223L13.5498 7.76223C13.6936 7.76223 13.8106 7.64622 13.8117 7.50226C13.8117 7.50225 13.8117 7.50226 13.8117 7.50226L13.8542 1.93085C13.8553 1.78555 13.7377 1.66699 13.5923 1.66699L11.1875 1.66699ZM10.8929 9.09556L7.93945 13.8837C7.65257 14.3688 7.13068 14.667 6.5663 14.667L6.38375 14.667C5.37861 14.667 4.62399 13.7486 4.81881 12.7625L5.29804 10.3368C5.30657 10.2937 5.30104 10.274 5.29971 10.2697C5.29823 10.2649 5.29497 10.257 5.28274 10.245C5.25485 10.2178 5.17182 10.167 5.02083 10.167L2.42951 10.167C1.40886 10.167 0.650895 9.22174 0.87228 8.22559L0.874591 8.21518L2.57573 1.57094C2.74227 0.847205 3.38674 0.333657 4.13029 0.333657L13.5923 0.333658C14.478 0.333658 15.1942 1.05528 15.1875 1.941C15.1875 1.94102 15.1875 1.94099 15.1875 1.941L15.145 7.51243C15.1383 8.38863 14.4261 9.09556 13.5498 9.09556L10.8929 9.09556Z" fill="#FF4242"/>
</svg>
