<svg style="display: none;" aria-hidden="true" xmlns="http://www.w3.org/2000/svg" xmlns:xlink="http://www.w3.org/1999/xlink"><symbol viewBox="0 0 7 12" id="svg-arr"><path clip-rule="evenodd" d="M0.529247 0.862254C0.789596 0.601905 1.21171 0.601905 1.47206 0.862254L6.13872 5.52892C6.39907 5.78927 6.39907 6.21138 6.13872 6.47173L1.47206 11.1384C1.21171 11.3987 0.789596 11.3987 0.529247 11.1384C0.268897 10.878 0.268897 10.4559 0.529247 10.1956L4.72451 6.00033L0.529247 1.80506C0.268897 1.54471 0.268897 1.1226 0.529247 0.862254Z"/></symbol><symbol viewBox="0 0 18 12" id="svg-arrow"><path clip-rule="evenodd" d="M11.7929 0.792893C12.1834 0.402369 12.8166 0.402369 13.2071 0.792893L17.7071 5.29289C18.0976 5.68342 18.0976 6.31658 17.7071 6.70711L13.2071 11.2071C12.8166 11.5976 12.1834 11.5976 11.7929 11.2071C11.4024 10.8166 11.4024 10.1834 11.7929 9.79289L14.5858 7H1C0.447715 7 0 6.55228 0 6C0 5.44772 0.447715 5 1 5H14.5858L11.7929 2.20711C11.4024 1.81658 11.4024 1.18342 11.7929 0.792893Z"/></symbol><symbol viewBox="0 0 21 20" id="svg-cart"><path clip-rule="evenodd" d="M2.8798 2.75768C2.79028 2.75093 2.66604 2.75033 2.43306 2.75033H.916667C.410406 2.75033 0 2.33992 0 1.83366 0 1.3274.410406.916996.916667.916996H2.43306C2.4417.916996 2.45034.916995 2.45898.916994 2.65575.91697 2.85058.916946 3.01755.929526 3.20335.943526 3.41921.976408 3.64252 1.07602 3.9568 1.21621 4.22528 1.44203 4.41724 1.72764 4.55364 1.93058 4.62303 2.13761 4.66865 2.31827 4.70966 2.48061 4.74301 2.67256 4.77671 2.86642 4.77818 2.87494 4.77966 2.88345 4.78115 2.89197L4.99956 4.14787 16.9291 4.50099C17.3965 4.51481 17.8005 4.52676 18.1332 4.5634 18.4849 4.60213 18.8336 4.67496 19.168 4.85314 19.6748 5.12313 20.0844 5.545 20.3393 6.05956 20.5075 6.39915 20.5699 6.7498 20.5982 7.10246 20.625 7.4361 20.625 7.84027 20.625 8.30795V8.37555C20.625 8.81506 20.625 9.19632 20.6004 9.51247 20.5743 9.84775 20.5167 10.1808 20.3631 10.5071 20.1293 11.0037 19.7523 11.419 19.2804 11.6996 18.9704 11.8839 18.6445 11.9733 18.3133 12.0316 18.001 12.0865 17.6216 12.1232 17.1841 12.1656L8.26136 13.029C7.81293 13.0725 7.4244 13.1101 7.10024 13.1158 6.75679 13.1218 6.41246 13.0951 6.06676 12.9682 5.54832 12.7777 5.09924 12.4356 4.778 11.9863 4.5638 11.6867 4.44668 11.3618 4.36134 11.029 4.28079 10.715 4.21392 10.3304 4.13675 9.88658L2.97492 3.20609C2.935 2.97655 2.91312 2.85426 2.89114 2.76721 2.89036 2.76412 2.8896 2.76118 2.88887 2.7584 2.88601 2.75816 2.88298 2.75792 2.8798 2.75768zM5.32019 5.99149L5.93719 9.53925C6.02181 10.0258 6.07681 10.3382 6.13719 10.5736 6.19478 10.7981 6.24033 10.8794 6.26935 10.92 6.37643 11.0697 6.52612 11.1838 6.69894 11.2473 6.74577 11.2645 6.83624 11.2868 7.06799 11.2827 7.31098 11.2785 7.62676 11.2486 8.11829 11.201L16.9745 10.3439C17.4543 10.2975 17.762 10.2671 17.9956 10.226 18.2181 10.1868 18.3011 10.1489 18.3435 10.1238 18.5008 10.0302 18.6264 9.89181 18.7044 9.72626 18.7254 9.68167 18.7551 9.59536 18.7726 9.37014 18.791 9.13371 18.7917 8.82451 18.7917 8.34246 18.7917 7.8305 18.791 7.50062 18.7708 7.24915 18.7515 7.00853 18.7187 6.91832 18.6964 6.87332 18.6115 6.7018 18.4749 6.56118 18.306 6.47118 18.2617 6.44757 18.1725 6.41214 17.9325 6.38572 17.6818 6.3581 17.3521 6.34765 16.8403 6.3325L5.32019 5.99149zM7.79167 16.042C7.28541 16.042 6.875 16.4524 6.875 16.9587 6.875 17.4649 7.28541 17.8753 7.79167 17.8753 8.29793 17.8753 8.70833 17.4649 8.70833 16.9587 8.70833 16.4524 8.29793 16.042 7.79167 16.042zM5.04167 16.9587C5.04167 15.4399 6.27288 14.2087 7.79167 14.2087 9.31045 14.2087 10.5417 15.4399 10.5417 16.9587 10.5417 18.4774 9.31045 19.7087 7.79167 19.7087 6.27288 19.7087 5.04167 18.4774 5.04167 16.9587zM16.5 16.042C15.9937 16.042 15.5833 16.4524 15.5833 16.9587 15.5833 17.4649 15.9937 17.8753 16.5 17.8753 17.0063 17.8753 17.4167 17.4649 17.4167 16.9587 17.4167 16.4524 17.0063 16.042 16.5 16.042zM13.75 16.9587C13.75 15.4399 14.9812 14.2087 16.5 14.2087 18.0188 14.2087 19.25 15.4399 19.25 16.9587 19.25 18.4774 18.0188 19.7087 16.5 19.7087 14.9812 19.7087 13.75 18.4774 13.75 16.9587z"/></symbol><symbol viewBox="0 0 16 15" id="svg-clock"><path d="M8.66797 3.83268C8.66797 3.46449 8.36949 3.16602 8.0013 3.16602C7.63311 3.16602 7.33464 3.46449 7.33464 3.83268V7.49935C7.33464 7.67616 7.40487 7.84573 7.5299 7.97075L9.5299 9.97075C9.79025 10.2311 10.2124 10.2311 10.4727 9.97075C10.7331 9.7104 10.7331 9.28829 10.4727 9.02794L8.66797 7.22321V3.83268Z"/><path fill-rule="evenodd" clip-rule="evenodd" d="M8.0013 0.166016C3.95121 0.166016 0.667969 3.44926 0.667969 7.49935C0.667969 11.5494 3.95121 14.8327 8.0013 14.8327C12.0514 14.8327 15.3346 11.5494 15.3346 7.49935C15.3346 3.44926 12.0514 0.166016 8.0013 0.166016ZM2.0013 7.49935C2.0013 4.18564 4.68759 1.49935 8.0013 1.49935C11.315 1.49935 14.0013 4.18564 14.0013 7.49935C14.0013 10.8131 11.315 13.4993 8.0013 13.4993C4.68759 13.4993 2.0013 10.8131 2.0013 7.49935Z"/></symbol><symbol viewBox="0 0 18 18" id="svg-con-mess"><path d="M8.99935 0.666016C4.39727 0.666016 0.666016 4.12018 0.666016 8.38164C0.666016 10.8098 1.87747 12.9754 3.77122 14.39V17.3327L6.60872 15.7754C7.36602 15.9848 8.1681 16.0983 8.99935 16.0983C13.6014 16.0983 17.3327 12.6441 17.3327 8.38268C17.3327 4.12122 13.6014 0.666016 8.99935 0.666016ZM9.82747 11.0566L7.7056 8.7931L3.56497 11.0566L8.12018 6.22122L10.2941 8.48477L14.3827 6.22122L9.82747 11.0566Z"/></symbol><symbol viewBox="0 0 22 22" id="svg-drag-file"><path fill-rule="evenodd" clip-rule="evenodd" d="M10.2929 0.542893C10.6834 0.152369 11.3166 0.152369 11.7071 0.542893L16.2071 5.04289C16.5976 5.43342 16.5976 6.06658 16.2071 6.45711C15.8166 6.84763 15.1834 6.84763 14.7929 6.45711L12 3.66421V16.25C12 16.8023 11.5523 17.25 11 17.25C10.4477 17.25 10 16.8023 10 16.25V3.66421L7.20711 6.45711C6.81658 6.84763 6.18342 6.84763 5.79289 6.45711C5.40237 6.06658 5.40237 5.43342 5.79289 5.04289L10.2929 0.542893ZM1.25 13C1.80228 13 2.25 13.4477 2.25 14V17.75C2.25 18.8546 3.14543 19.75 4.25 19.75H17.75C18.8546 19.75 19.75 18.8546 19.75 17.75V14C19.75 13.4477 20.1977 13 20.75 13C21.3023 13 21.75 13.4477 21.75 14V17.75C21.75 19.9591 19.9591 21.75 17.75 21.75H4.25C2.04086 21.75 0.25 19.9591 0.25 17.75V14C0.25 13.4477 0.697715 13 1.25 13Z"/></symbol><symbol viewBox="0 0 8 16" id="svg-fb"><path d="M7.70791 0.669067L5.8564 0.666016C3.77629 0.666016 2.43204 2.08274 2.43204 4.2755V5.93972H0.570429C0.409564 5.93972 0.279297 6.07368 0.279297 6.23893V8.65019C0.279297 8.81543 0.409712 8.94925 0.570429 8.94925H2.43204V15.0336C2.43204 15.1989 2.5623 15.3327 2.72317 15.3327H5.15204C5.3129 15.3327 5.44317 15.1987 5.44317 15.0336V8.94925H7.61983C7.78069 8.94925 7.91096 8.81543 7.91096 8.65019L7.91185 6.23893C7.91185 6.15959 7.8811 6.0836 7.82659 6.02745C7.77208 5.9713 7.69781 5.93972 7.62057 5.93972H5.44317V4.52894C5.44317 3.85087 5.60047 3.50664 6.46035 3.50664L7.70761 3.50618C7.86833 3.50618 7.99859 3.37221 7.99859 3.20712V0.968129C7.99859 0.803187 7.86848 0.669372 7.70791 0.669067Z"/></symbol><symbol viewBox="0 0 16 18" id="svg-geo"><path fill-rule="evenodd" clip-rule="evenodd" d="M8.0013 5.45768C7.08083 5.45768 6.33464 6.20387 6.33464 7.12435C6.33464 8.04482 7.08083 8.79102 8.0013 8.79102C8.92178 8.79102 9.66797 8.04482 9.66797 7.12435C9.66797 6.20387 8.92178 5.45768 8.0013 5.45768ZM4.66797 7.12435C4.66797 5.2834 6.16035 3.79102 8.0013 3.79102C9.84225 3.79102 11.3346 5.2834 11.3346 7.12435C11.3346 8.9653 9.84225 10.4577 8.0013 10.4577C6.16035 10.4577 4.66797 8.9653 4.66797 7.12435Z"/><path fill-rule="evenodd" clip-rule="evenodd" d="M8.0013 1.70768C4.98502 1.70768 2.58464 4.07107 2.58464 6.93204C2.58464 9.26439 3.98631 11.62 5.5185 13.4729C6.27068 14.3825 7.02499 15.1359 7.59169 15.662C7.74329 15.8027 7.88106 15.9268 8.0013 16.0328C8.12154 15.9268 8.25932 15.8027 8.41092 15.662C8.97762 15.1359 9.73193 14.3825 10.4841 13.4729C12.0163 11.62 13.418 9.26439 13.418 6.93204C13.418 4.07107 11.0176 1.70768 8.0013 1.70768ZM8.0013 17.1244C7.48561 17.779 7.48542 17.7788 7.48521 17.7786L7.48314 17.777L7.47839 17.7732L7.46225 17.7604C7.44857 17.7494 7.42913 17.7337 7.4043 17.7135C7.35466 17.673 7.28346 17.6141 7.19378 17.5381C7.01449 17.386 6.76091 17.1648 6.45779 16.8835C5.85262 16.3217 5.04443 15.5149 4.2341 14.535C2.64129 12.6089 0.917969 9.86835 0.917969 6.93204C0.917969 3.10188 4.11403 0.0410156 8.0013 0.0410156C11.8886 0.0410156 15.0846 3.10188 15.0846 6.93204C15.0846 9.86835 13.3613 12.6089 11.7685 14.535C10.9582 15.5149 10.15 16.3217 9.54481 16.8835C9.24169 17.1648 8.98812 17.386 8.80883 17.5381C8.71914 17.6141 8.64794 17.673 8.5983 17.7135C8.57348 17.7337 8.55404 17.7494 8.54036 17.7604L8.52421 17.7732L8.51947 17.777L8.51794 17.7782C8.51773 17.7784 8.51699 17.779 8.0013 17.1244ZM8.0013 17.1244L8.51699 17.779C8.2145 18.0173 7.78771 18.0169 7.48521 17.7786L8.0013 17.1244Z"/></symbol><symbol viewBox="0 0 14 14" id="svg-google"><path d="M7.1401 6.00254H13.7237C13.7964 6.40815 13.8327 6.7956 13.8327 7.16488C13.8327 8.47858 13.5572 9.65152 13.0063 10.6837C12.4554 11.7159 11.6699 12.5226 10.6498 13.1038C9.62977 13.6849 8.45985 13.9755 7.1401 13.9755C6.18964 13.9755 5.28458 13.7924 4.42493 13.4261C3.56528 13.0599 2.82368 12.565 2.20012 11.9414C1.57657 11.3179 1.08167 10.5763 0.715407 9.7166C0.349146 8.85695 0.166016 7.95189 0.166016 7.00143C0.166016 6.05097 0.349146 5.14591 0.715407 4.28626C1.08167 3.4266 1.57657 2.685 2.20012 2.06145C2.82368 1.4379 3.56528 0.942995 4.42493 0.576735C5.28458 0.210474 6.18964 0.0273438 7.1401 0.0273438C8.95627 0.0273438 10.5151 0.63576 11.8167 1.85259L9.91884 3.67784C9.17421 2.95743 8.24796 2.59722 7.1401 2.59722C6.35915 2.59722 5.63722 2.79397 4.97432 3.18748C4.31142 3.58098 3.78624 4.11524 3.3988 4.79024C3.01135 5.46525 2.81762 6.20232 2.81762 7.00143C2.81762 7.80054 3.01135 8.5376 3.3988 9.21261C3.78624 9.88762 4.31142 10.4219 4.97432 10.8154C5.63722 11.2089 6.35915 11.4056 7.1401 11.4056C7.66679 11.4056 8.1511 11.333 8.59304 11.1877C9.03497 11.0424 9.3982 10.8608 9.68274 10.6428C9.96727 10.4249 10.2155 10.1767 10.4274 9.89822C10.6393 9.61974 10.7951 9.35639 10.895 9.10818C10.9949 8.85997 11.063 8.62387 11.0993 8.39988H7.1401V6.00254Z"/></symbol><symbol viewBox="0 0 14 15" id="svg-home"><path fill-rule="evenodd" clip-rule="evenodd" d="M7.52347 2.28077C7.18117 2.18809 6.82039 2.18809 6.47809 2.28077C6.12173 2.37726 5.77613 2.63005 4.7906 3.39657L3.05726 4.74472C2.42297 5.23806 2.21001 5.41103 2.05948 5.61456C1.91481 5.81015 1.80705 6.03049 1.74148 6.26476C1.67324 6.50853 1.66745 6.78283 1.66745 7.58639V11.9996C1.66745 12.5133 1.67468 12.6224 1.69615 12.6932C1.76079 12.9062 1.92752 13.073 2.14059 13.1376C2.21137 13.1591 2.32042 13.1663 2.83411 13.1663H3.25078C3.33608 13.1663 3.3546 13.1661 3.36683 13.1655C3.7093 13.1487 3.98315 12.8748 3.99998 12.5323C4.00058 12.5201 4.00078 12.5016 4.00078 12.4163V10.4996C4.00078 8.84278 5.34393 7.49963 7.00078 7.49963C8.65763 7.49963 10.0008 8.84278 10.0008 10.4996V12.4163C10.0008 12.5016 10.001 12.5201 10.0016 12.5323C10.0184 12.8748 10.2923 13.1487 10.6347 13.1655C10.647 13.1661 10.6655 13.1663 10.7508 13.1663H11.1674C11.6811 13.1663 11.7902 13.1591 11.861 13.1376C12.074 13.073 12.2408 12.9062 12.3054 12.6932C12.3269 12.6224 12.3341 12.5133 12.3341 11.9996V7.58639C12.3341 6.78283 12.3283 6.50853 12.2601 6.26476C12.1945 6.03049 12.0867 5.81015 11.9421 5.61456C11.7916 5.41103 11.5786 5.23806 10.9443 4.74472L9.21097 3.39657C8.22543 2.63005 7.87984 2.37726 7.52347 2.28077ZM6.12962 0.99378C6.70012 0.839313 7.30144 0.839313 7.87194 0.99378C8.5208 1.16946 9.09012 1.61272 9.91611 2.25581C9.95339 2.28484 9.9912 2.31427 10.0296 2.3441L11.7629 3.69225C11.7868 3.71089 11.8105 3.72926 11.8338 3.74739C12.37 4.16417 12.741 4.45248 13.0141 4.8217C13.2552 5.14768 13.4348 5.51491 13.5441 5.90536C13.6679 6.34759 13.6677 6.81741 13.6675 7.49656C13.6675 7.5261 13.6674 7.55604 13.6674 7.58639V11.9996C13.6674 12.0279 13.6675 12.0558 13.6675 12.0835C13.668 12.4644 13.6684 12.7933 13.5813 13.0802C13.3874 13.7194 12.8872 14.2196 12.248 14.4135C11.9611 14.5005 11.6322 14.5002 11.2513 14.4997C11.2236 14.4997 11.1957 14.4996 11.1674 14.4996L10.7368 14.4996C10.6734 14.4996 10.6189 14.4997 10.5693 14.4972C9.5419 14.4468 8.72033 13.6252 8.66986 12.5978C8.66742 12.5482 8.66743 12.4937 8.66745 12.4303L8.66745 10.4996C8.66745 9.57916 7.92126 8.83297 7.00078 8.83297C6.08031 8.83297 5.33411 9.57916 5.33411 10.4996L5.33412 12.4303C5.33413 12.4937 5.33414 12.5482 5.33171 12.5978C5.28123 13.6252 4.45966 14.4468 3.43225 14.4972C3.38269 14.4997 3.32818 14.4996 3.26475 14.4996L2.83411 14.4996C2.80588 14.4996 2.77792 14.4997 2.75023 14.4997C2.36938 14.5002 2.04044 14.5005 1.75355 14.4135C1.11434 14.2196 0.614134 13.7194 0.420234 13.0802C0.333205 12.7933 0.333596 12.4644 0.334049 12.0835C0.334081 12.0558 0.334115 12.0279 0.334115 11.9996V7.58639C0.334115 7.55604 0.334105 7.5261 0.334095 7.49655C0.333866 6.81741 0.333708 6.34759 0.457494 5.90536C0.566784 5.51491 0.746391 5.14768 0.987493 4.8217C1.26057 4.45248 1.63153 4.16416 2.16775 3.74739C2.19108 3.72926 2.21472 3.71089 2.23867 3.69225L3.97201 2.3441C4.01037 2.31427 4.04817 2.28483 4.08546 2.25581C4.91144 1.61272 5.48077 1.16946 6.12962 0.99378Z"/></symbol><symbol viewBox="0 0 14 14" id="svg-in"><path d="M13.664 13.6673L13.6673 13.6668V8.77677C13.6673 6.38454 13.1523 4.54176 10.3557 4.54176 9.01121 4.54176 8.10898 5.27954 7.74065 5.97899H7.70176V4.7651H5.05009V13.6668H7.8112V9.25899C7.8112 8.09843 8.0312 6.97621 9.46843 6.97621 10.8845 6.97621 10.9057 8.30065 10.9057 9.33343V13.6673H13.664zM.553981 4.76565H3.31843V13.6673H.553981V4.76565zM1.9351.333984C1.05121.333984.333984 1.05121.333984 1.9351.333984 2.81898 1.05121 3.55121 1.9351 3.55121 2.81898 3.55121 3.53621 2.81898 3.53621 1.9351 3.53565 1.05121 2.81843.333984 1.9351.333984z"/></symbol><symbol viewBox="0 0 21 20" id="svg-inst"><path d="M19.9804 5.88005C19.9336 4.81738 19.7617 4.0868 19.5156 3.45374C19.2616 2.78176 18.8709 2.18014 18.359 1.68002C17.8589 1.1721 17.2533 0.777435 16.5891 0.527447C15.9524 0.281274 15.2256 0.109427 14.163 0.0625732C13.0923 0.0117516 12.7525 0 10.0371 0C7.32172 0 6.98185 0.0117516 5.9152 0.0586052C4.85253 0.105459 4.12195 0.277459 3.48904 0.523479C2.81692 0.777435 2.2153 1.16814 1.71517 1.68002C1.20726 2.18014 0.812742 2.78573 0.562602 3.44992C0.31643 4.0868 0.144583 4.81341 0.0977294 5.87609C0.0469078 6.9467 0.0351562 7.28658 0.0351562 10.002C0.0351562 12.7173 0.0469078 13.0572 0.0937614 14.1239C0.140615 15.1865 0.312615 15.9171 0.558787 16.5502C0.812742 17.2221 1.20726 17.8238 1.71517 18.3239C2.2153 18.8318 2.82088 19.2265 3.48507 19.4765C4.12195 19.7226 4.84856 19.8945 5.91139 19.9413C6.97788 19.9883 7.31791 19.9999 10.0333 19.9999C12.7486 19.9999 13.0885 19.9883 14.1552 19.9413C15.2178 19.8945 15.9484 19.7226 16.5813 19.4765C17.9254 18.9568 18.9881 17.8941 19.5078 16.5502C19.7538 15.9133 19.9258 15.1865 19.9726 14.1239C20.0195 13.0572 20.0312 12.7173 20.0312 10.002C20.0312 7.28658 20.0273 6.9467 19.9804 5.88005ZM18.1794 14.0457C18.1364 15.0225 17.9723 15.5499 17.8355 15.9015C17.4995 16.7728 16.808 17.4643 15.9367 17.8004C15.585 17.9372 15.0538 18.1012 14.0808 18.1441C13.026 18.1911 12.7096 18.2027 10.0411 18.2027C7.37255 18.2027 7.0522 18.1911 6.00113 18.1441C5.02437 18.1012 4.49693 17.9372 4.1453 17.8004C3.71171 17.6402 3.31704 17.3862 2.9967 17.0541C2.6646 16.7298 2.41065 16.3391 2.2504 15.9055C2.11365 15.5539 1.94959 15.0225 1.9067 14.0497C1.8597 12.9948 1.8481 12.6783 1.8481 10.0097C1.8481 7.34122 1.8597 7.02087 1.9067 5.96995C1.94959 4.99319 2.11365 4.46575 2.2504 4.11412C2.41065 3.68038 2.6646 3.28586 3.00067 2.96536C3.32483 2.63327 3.71553 2.37931 4.14927 2.21921C4.5009 2.08247 5.03231 1.9184 6.00509 1.87537C7.05999 1.82851 7.37652 1.81676 10.0449 1.81676C12.7174 1.81676 13.0337 1.82851 14.0848 1.87537C15.0616 1.9184 15.589 2.08247 15.9406 2.21921C16.3742 2.37931 16.7689 2.63327 17.0892 2.96536C17.4213 3.28967 17.6753 3.68038 17.8355 4.11412C17.9723 4.46575 18.1364 4.99701 18.1794 5.96995C18.2262 7.02484 18.238 7.34122 18.238 10.0097C18.238 12.6783 18.2262 12.9908 18.1794 14.0457Z"/><path d="M10.0371 4.86423C7.20069 4.86423 4.89937 7.1654 4.89937 10.002 4.89937 12.8385 7.20069 15.1397 10.0371 15.1397 12.8736 15.1397 15.1748 12.8385 15.1748 10.002 15.1748 7.1654 12.8736 4.86423 10.0371 4.86423zM10.0371 13.3347C8.19698 13.3347 6.70438 11.8422 6.70438 10.002 6.70438 8.16169 8.19698 6.66924 10.0371 6.66924 11.8774 6.66924 13.3698 8.16169 13.3698 10.002 13.3698 11.8422 11.8774 13.3347 10.0371 13.3347zM16.5776 4.6611C16.5776 5.32346 16.0405 5.86053 15.378 5.86053 14.7156 5.86053 14.1785 5.32346 14.1785 4.6611 14.1785 3.99858 14.7156 3.46167 15.378 3.46167 16.0405 3.46167 16.5776 3.99858 16.5776 4.6611z"/></symbol><symbol viewBox="0 0 20 18" id="svg-like"><path clip-rule="evenodd" d="M9.99907 15.5894C6.16651 13.4065 4.02897 11.2369 2.99533 9.35451C1.9374 7.42785 2.02971 5.80512 2.61675 4.65342C3.8234 2.28614 7.25473 1.52916 9.34537 4.17331L9.99902 5.00002L10.6527 4.17335C12.7437 1.52909 16.1752 2.2862 17.3819 4.65342C17.9689 5.80511 18.0612 7.42782 17.0032 9.35449C15.9694 11.2369 13.8318 13.4065 9.99907 15.5894ZM9.9991 2.42157C7.05809 -0.373102 2.71943 0.781932 1.13186 3.89654C0.260575 5.60588 0.248673 7.81515 1.53441 10.1567C2.80875 12.4775 5.3495 14.9271 9.59594 17.2742L9.99905 17.497L10.4022 17.2742C14.6488 14.9271 17.1896 12.4775 18.4641 10.1567C19.7499 7.81518 19.738 5.6059 18.8667 3.89654C17.2791 0.781873 12.9404 -0.37306 9.9991 2.42157Z"/></symbol><symbol viewBox="0 0 14 15" id="svg-login"><path fill-rule="evenodd" clip-rule="evenodd" d="M7.00055 1.66634C5.71188 1.66634 4.66721 2.71101 4.66721 3.99967 4.66721 5.28834 5.71188 6.33301 7.00055 6.33301 8.28921 6.33301 9.33388 5.28834 9.33388 3.99967 9.33388 2.71101 8.28921 1.66634 7.00055 1.66634zM3.33388 3.99967C3.33388 1.97463 4.9755.333008 7.00055.333008 9.02559.333008 10.6672 1.97463 10.6672 3.99967 10.6672 6.02472 9.02559 7.66634 7.00055 7.66634 4.9755 7.66634 3.33388 6.02472 3.33388 3.99967zM3.06992 9.66634C2.60771 9.66634 2.24643 9.8914 2.09979 10.2148 1.89681 10.6623 1.71301 11.1951 1.66964 11.7005 1.65025 11.9264 1.74444 12.0928 1.87423 12.1735 2.56033 12.5997 4.15014 13.333 7.00055 13.333 9.85095 13.333 11.4408 12.5997 12.1269 12.1735 12.2567 12.0928 12.3508 11.9264 12.3315 11.7005 12.2881 11.1951 12.1043 10.6623 11.9013 10.2148 11.7547 9.8914 11.3934 9.66634 10.9312 9.66634H3.06992zM.885499 9.66404C1.2908 8.77039 2.19582 8.33301 3.06992 8.33301H10.9312C11.8053 8.33301 12.7103 8.77039 13.1156 9.66404 13.3484 10.1773 13.5982 10.8673 13.6599 11.5864 13.7161 12.2413 13.4439 12.9249 12.8304 13.3061 11.9281 13.8666 10.0936 14.6663 7.00055 14.6663 3.90748 14.6663 2.07301 13.8666 1.17066 13.3061.557149 12.9249.284988 12.2413.341191 11.5864.40291 10.8673.652708 10.1773.885499 9.66404z"/></symbol><symbol viewBox="0 0 18 15" id="svg-mess"><path fill-rule="evenodd" clip-rule="evenodd" d="M17.9577 12.0006V2.83398C17.9577 1.45327 16.8384 0.333984 15.4577 0.333984L2.54101 0.333997C1.1603 0.333998 0.0410156 1.45329 0.0410156 2.834V12.0006C0.0410156 13.3814 1.1603 14.5006 2.54102 14.5006L15.4577 14.5006C16.8384 14.5006 17.9577 13.3814 17.9577 12.0006ZM16.291 4.71687V12.0006C16.291 12.4609 15.9179 12.834 15.4577 12.834L2.54102 12.834C2.08078 12.834 1.70768 12.4609 1.70768 12.0006L1.70768 4.71676L7.59366 8.71922C8.44206 9.29613 9.55681 9.29613 10.4052 8.71922L16.291 4.71687ZM16.2815 2.70783C16.2207 2.30745 15.875 2.00065 15.4577 2.00065L2.54101 2.00066C2.1237 2.00066 1.77804 2.30741 1.71719 2.70773L8.53084 7.34101C8.81364 7.53331 9.18522 7.53331 9.46802 7.34101L16.2815 2.70783Z"/></symbol><symbol viewBox="0 0 18 18" id="svg-orders"><path fill-rule="evenodd" clip-rule="evenodd" d="M3.99935 1.70768C3.07888 1.70768 2.33268 2.45387 2.33268 3.37435L2.33268 14.6243C2.33268 15.5448 3.07888 16.291 3.99935 16.291H13.9993C14.9198 16.291 15.666 15.5448 15.666 14.6243V3.37436C15.666 2.45389 14.9198 1.7077 13.9993 1.70769L3.99935 1.70768ZM0.666016 3.37435C0.666016 1.5334 2.1584 0.0410118 3.99935 0.0410156L13.9994 0.0410275C15.8403 0.0410297 17.3327 1.53341 17.3327 3.37436V14.6243C17.3327 16.4653 15.8403 17.9577 13.9993 17.9577H3.99935C2.1584 17.9577 0.666016 16.4653 0.666016 14.6243L0.666016 3.37435ZM12.7493 3.166C13.2096 3.166 13.5827 3.53909 13.5827 3.99933L13.5827 5.24933C13.5827 7.78063 11.5307 9.83266 8.99935 9.83266C6.46804 9.83266 4.41601 7.78063 4.41601 5.24933V3.99933C4.41601 3.53909 4.78911 3.166 5.24935 3.166C5.70958 3.166 6.08268 3.53909 6.08268 3.99933V5.24933C6.08268 6.86016 7.38852 8.166 8.99935 8.166C10.6102 8.166 11.916 6.86016 11.916 5.24933L11.916 3.99933C11.916 3.53909 12.2891 3.166 12.7493 3.166Z"/></symbol><symbol viewBox="0 0 18 18" id="svg-out"><path d="M12.7507 16.291C13.2109 16.291 13.584 16.6641 13.584 17.1243C13.584 17.5846 13.2109 17.9577 12.7507 17.9577H4.20898C1.90779 17.9577 0.042314 16.0922 0.042314 13.791V4.20768C0.042314 1.90649 1.90779 0.0410156 4.20898 0.0410156H12.7507C13.2109 0.0410156 13.584 0.41411 13.584 0.874349C13.584 1.33459 13.2109 1.70768 12.7507 1.70768L4.20898 1.70768C2.82827 1.70768 1.70898 2.82697 1.70898 4.20768V13.791C1.70898 15.1717 2.82827 16.291 4.20898 16.291H12.7507Z"/><path d="M3.79232 8.99935C3.79232 9.22036 3.88011 9.43232 4.03639 9.58861L7.78639 13.3386C8.11183 13.664 8.63947 13.664 8.96491 13.3386C9.29034 13.0132 9.29034 12.4855 8.96491 12.1601L6.63749 9.83268L17.1257 9.83268C17.5859 9.83268 17.959 9.45959 17.959 8.99935C17.959 8.53911 17.5859 8.16602 17.1257 8.16602L6.63749 8.16602L8.96491 5.83861C9.29034 5.51317 9.29034 4.98553 8.96491 4.66009C8.63947 4.33466 8.11183 4.33466 7.78639 4.66009L4.03639 8.41009C3.88011 8.56637 3.79232 8.77834 3.79232 8.99935Z"/></symbol><symbol viewBox="0 0 12 20" id="svg-phone"><path fill-rule="evenodd" clip-rule="evenodd" d="M3.08268 2.43424C2.39233 2.43424 1.83268 2.99389 1.83268 3.68424V16.3145C1.83268 17.0048 2.39233 17.5645 3.08268 17.5645H8.91602C9.60637 17.5645 10.166 17.0048 10.166 16.3145V3.68424C10.166 2.99389 9.60637 2.43424 8.91602 2.43424H8.84653L8.64356 2.92129C8.51415 3.2318 8.21075 3.43406 7.87435 3.43406H4.12435C3.78795 3.43406 3.48454 3.2318 3.35514 2.92129L3.15217 2.43424H3.08268ZM0.166016 3.68424C0.166016 2.07341 1.47185 0.767578 3.08268 0.767578H8.91602C10.5268 0.767578 11.8327 2.07341 11.8327 3.68424V16.3145C11.8327 17.9253 10.5268 19.2311 8.91602 19.2311H3.08268C1.47185 19.2311 0.166016 17.9253 0.166016 16.3145V3.68424Z"/></symbol><symbol viewBox="0 0 12 16" id="svg-pin"><path d="M6.20093 0.666016C2.15211 0.666627 0 3.2425 0 6.0512C0 7.3535 0.732961 8.97847 1.90656 9.49364C2.24135 9.64336 2.19704 9.46064 2.48505 8.36674C2.50782 8.27568 2.49613 8.19684 2.42228 8.1119C0.744653 6.18504 2.09488 2.22376 5.96154 2.22376C11.5575 2.22376 10.5119 9.91287 6.93512 9.91287C6.01323 9.91287 5.32643 9.19419 5.54367 8.30501C5.80707 7.24594 6.32279 6.10743 6.32279 5.34414C6.32279 3.42033 3.43648 3.70573 3.43648 6.25471C3.43648 7.04244 3.71711 7.57411 3.71711 7.57411C3.71711 7.57411 2.78845 11.2995 2.61613 11.9956C2.32443 13.1738 2.65552 15.0811 2.68445 15.2455C2.70229 15.3359 2.80445 15.3647 2.86169 15.2901C2.95338 15.1709 4.0759 13.5808 4.39038 12.4313C4.50485 12.0127 4.97441 10.3138 4.97441 10.3138C5.28396 10.8687 6.17632 11.3331 7.12713 11.3331C9.95559 11.3331 12 8.86419 12 5.80064C11.9902 2.8636 9.45895 0.666016 6.20093 0.666016V0.666016Z"/></symbol><symbol viewBox="0 0 22 20" id="svg-price-card"><path clip-rule="evenodd" d="M3.25 2.75C2.69772 2.75 2.25 3.19771 2.25 3.75L2.25 5.25H19.75V3.75003C19.75 3.19774 19.3023 2.75003 18.75 2.75003L3.25 2.75ZM19.75 7.25H2.25V9.75H19.75V7.25ZM19.75 11.75H2.25L2.25 16.25C2.25 16.8023 2.69771 17.25 3.25 17.25L18.75 17.25C19.3023 17.25 19.75 16.8023 19.75 16.25V11.75ZM0.250001 3.75C0.250001 2.09315 1.59315 0.749995 3.25001 0.75L18.75 0.750029C20.4069 0.750032 21.75 2.09318 21.75 3.75003V16.25C21.75 17.9069 20.4069 19.25 18.75 19.25L3.25 19.25C1.59314 19.25 0.25 17.9069 0.25 16.25L0.250001 3.75Z"/></symbol><symbol viewBox="0 0 16 16" id="svg-search"><path clip-rule="evenodd" d="M7.25065 2.16634C4.4432 2.16634 2.16732 4.44223 2.16732 7.24967C2.16732 10.0571 4.4432 12.333 7.25065 12.333C8.65324 12.333 9.92209 11.7658 10.8425 10.8467C11.7647 9.92589 12.334 8.6549 12.334 7.24967C12.334 4.44223 10.0581 2.16634 7.25065 2.16634ZM0.833984 7.24967C0.833984 3.70585 3.70682 0.833008 7.25065 0.833008C10.7945 0.833008 13.6673 3.70585 13.6673 7.24967C13.6673 8.78248 13.1292 10.1905 12.2326 11.2939L14.9716 14.0278C15.2322 14.2879 15.2326 14.7101 14.9725 14.9706C14.7124 15.2312 14.2903 15.2316 14.0297 14.9715L11.2893 12.2362C10.1868 13.13 8.78088 13.6663 7.25065 13.6663C3.70682 13.6663 0.833984 10.7935 0.833984 7.24967Z"/></symbol><symbol viewBox="0 0 15 16" id="svg-settings"><path fill-rule="evenodd" clip-rule="evenodd" d="M3.83268 6.33301C4.20087 6.33301 4.49935 6.63148 4.49935 6.99967L4.49935 14.4997C4.49935 14.8679 4.20087 15.1663 3.83268 15.1663 3.46449 15.1663 3.16602 14.8679 3.16602 14.4997L3.16602 6.99967C3.16602 6.63148 3.46449 6.33301 3.83268 6.33301zM3.83268.833008C4.20087.833008 4.49935 1.13148 4.49935 1.49967V3.49967C4.49935 3.86786 4.20087 4.16634 3.83268 4.16634 3.46449 4.16634 3.16602 3.86786 3.16602 3.49967V1.49967C3.16602 1.13148 3.46449.833008 3.83268.833008z"/><path fill-rule="evenodd" clip-rule="evenodd" d="M.166016 4.83301C.166016 3.72844 1.06145 2.83301 2.16602 2.83301H5.49935C6.60392 2.83301 7.49935 3.72844 7.49935 4.83301V5.66634C7.49935 6.77091 6.60392 7.66634 5.49935 7.66634H2.16602C1.06145 7.66634.166016 6.77091.166016 5.66634V4.83301zM2.16602 4.16634C1.79783 4.16634 1.49935 4.46482 1.49935 4.83301V5.66634C1.49935 6.03453 1.79783 6.33301 2.16602 6.33301H5.49935C5.86754 6.33301 6.16602 6.03453 6.16602 5.66634V4.83301C6.16602 4.46482 5.86754 4.16634 5.49935 4.16634H2.16602zM11.166 11.833C11.5342 11.833 11.8327 12.1315 11.8327 12.4997V14.4997C11.8327 14.8679 11.5342 15.1663 11.166 15.1663 10.7978 15.1663 10.4993 14.8679 10.4993 14.4997V12.4997C10.4993 12.1315 10.7978 11.833 11.166 11.833zM11.166.833008C11.5342.833008 11.8327 1.13148 11.8327 1.49967V8.99967C11.8327 9.36786 11.5342 9.66634 11.166 9.66634 10.7978 9.66634 10.4993 9.36786 10.4993 8.99967V1.49967C10.4993 1.13148 10.7978.833008 11.166.833008z"/><path fill-rule="evenodd" clip-rule="evenodd" d="M7.49935 10.333C7.49935 9.22844 8.39478 8.33301 9.49935 8.33301H12.8327C13.9373 8.33301 14.8327 9.22844 14.8327 10.333V11.1663C14.8327 12.2709 13.9373 13.1663 12.8327 13.1663H9.49935C8.39478 13.1663 7.49935 12.2709 7.49935 11.1663V10.333ZM9.49935 9.66634C9.13116 9.66634 8.83268 9.96482 8.83268 10.333V11.1663C8.83268 11.5345 9.13116 11.833 9.49935 11.833H12.8327C13.2009 11.833 13.4993 11.5345 13.4993 11.1663V10.333C13.4993 9.96482 13.2009 9.66634 12.8327 9.66634H9.49935Z"/></symbol><symbol viewBox="0 0 20 19" id="svg-star"><path fill-rule="evenodd" clip-rule="evenodd" d="M8.475 1.83533C9.05395 0.500204 10.9473 0.500203 11.5263 1.83533L13.2776 5.87408L17.6599 6.29166C19.1086 6.42971 19.6937 8.23043 18.6028 9.19363L15.3029 12.1073L16.26 16.4041C16.5764 17.8246 15.0446 18.9375 13.7914 18.1976L10.0007 15.9596L6.20986 18.1976C4.95671 18.9375 3.42493 17.8246 3.74131 16.4041L4.69836 12.1073L1.39847 9.19363C0.307603 8.23043 0.892692 6.42971 2.34138 6.29166L6.72366 5.87408L8.475 1.83533ZM11.752 6.53566L10.0007 2.4969L8.24931 6.53566C8.00835 7.09133 7.48433 7.47205 6.8814 7.5295L2.49912 7.94708L5.79901 10.8608C6.25302 11.2616 6.45318 11.8776 6.3215 12.4688L5.36445 16.7657L9.15524 14.5277C9.67679 14.2197 10.3245 14.2197 10.8461 14.5277L14.6369 16.7657L13.6798 12.4688C13.5481 11.8776 13.7483 11.2616 14.2023 10.8608L17.5022 7.94708L13.1199 7.5295C12.517 7.47205 11.993 7.09133 11.752 6.53566Z"/></symbol><symbol viewBox="0 0 16 16" id="svg-trash"><path clip-rule="evenodd" d="M4.83203 2.49967C4.83203 1.5792 5.57822 0.833008 6.4987 0.833008H9.4987C10.4192 0.833008 11.1654 1.5792 11.1654 2.49967V2.83301H14.4987C14.8669 2.83301 15.1654 3.13148 15.1654 3.49967C15.1654 3.86786 14.8669 4.16634 14.4987 4.16634H13.6654V12.4997C13.6654 13.9724 12.4715 15.1663 10.9987 15.1663H4.9987C3.52594 15.1663 2.33203 13.9724 2.33203 12.4997V4.16634H1.4987C1.13051 4.16634 0.832031 3.86786 0.832031 3.49967C0.832031 3.13148 1.13051 2.83301 1.4987 2.83301H4.83203V2.49967ZM6.16536 2.83301H9.83203V2.49967C9.83203 2.31558 9.68279 2.16634 9.4987 2.16634H6.4987C6.3146 2.16634 6.16536 2.31558 6.16536 2.49967V2.83301ZM3.66536 4.16634V12.4997C3.66536 13.2361 4.26232 13.833 4.9987 13.833H10.9987C11.7351 13.833 12.332 13.2361 12.332 12.4997V4.16634H3.66536ZM7.9987 5.33301C8.36689 5.33301 8.66536 5.63148 8.66536 5.99967L8.66537 11.9997C8.66537 12.3679 8.36689 12.6663 7.9987 12.6663C7.63051 12.6663 7.33203 12.3679 7.33203 11.9997L7.33203 5.99967C7.33203 5.63148 7.63051 5.33301 7.9987 5.33301Z"/></symbol><symbol viewBox="0 0 14 12" id="svg-twitter"><path d="M14 1.84887C13.4847 2.0675 12.9318 2.21577 12.3509 2.28196C12.9441 1.94186 13.3981 1.4024 13.6133 0.761582C13.0569 1.07654 12.4428 1.30524 11.7884 1.42922C11.2644 0.893947 10.519 0.560547 9.69227 0.560547C8.1062 0.560547 6.82018 1.79192 6.82018 3.30978C6.82018 3.52505 6.84555 3.73531 6.89455 3.93637C4.50801 3.82159 2.39178 2.72676 0.975426 1.06313C0.727841 1.46858 0.586994 1.941 0.586994 2.4453C0.586994 3.39941 1.0944 4.24127 1.86427 4.7338C1.3936 4.71873 0.950926 4.59476 0.563386 4.38869V4.42303C0.563386 5.75492 1.55371 6.86651 2.86682 7.1195C2.62624 7.18149 2.37255 7.21583 2.11009 7.21583C1.92464 7.21583 1.74529 7.19824 1.56944 7.16473C1.93511 8.25789 2.99543 9.05283 4.25171 9.07463C3.26926 9.81178 2.03048 10.2499 0.684995 10.2499C0.453171 10.2499 0.224824 10.2365 0 10.2122C1.27114 10.9937 2.78024 11.4494 4.40218 11.4494C9.68532 11.4494 12.5732 7.2594 12.5732 3.62559L12.5635 3.26959C13.1278 2.88423 13.6159 2.40007 14 1.84887Z"/></symbol><symbol viewBox="0 0 15 13" id="svg-view-pass"><path d="M1.75978 3.67857C3.56252 2.17458 5.63791 1.33333 7.8327 1.33333C10.0275 1.33333 12.1029 2.17458 13.9056 3.67857C14.1883 3.91444 14.6087 3.87646 14.8446 3.59374C15.0805 3.31102 15.0425 2.89063 14.7598 2.65476C12.7552 0.982371 10.3857 0 7.8327 0C5.27974 0 2.9102 0.982371 0.905623 2.65476C0.622903 2.89063 0.584923 3.31102 0.82079 3.59374C1.05666 3.87646 1.47706 3.91444 1.75978 3.67857Z"/><path fill-rule="evenodd" clip-rule="evenodd" d="M2.7332 4.45935C3.93222 3.44709 5.64231 2.5 7.58268 2.5C9.52306 2.5 11.2331 3.44709 12.4322 4.45935C13.0366 4.96963 13.5321 5.51363 13.8824 5.99952C14.0571 6.24199 14.2029 6.47992 14.3078 6.70052C14.4041 6.90315 14.4993 7.15887 14.4993 7.41667C14.4993 7.67447 14.4041 7.93019 14.3078 8.13282C14.2029 8.35342 14.0571 8.59134 13.8824 8.83381C13.5321 9.3197 13.0366 9.8637 12.4322 10.374C11.2331 11.3862 9.52306 12.3333 7.58268 12.3333C5.64231 12.3333 3.93222 11.3862 2.7332 10.374C2.12878 9.8637 1.63322 9.3197 1.28301 8.83381C1.10825 8.59134 0.962506 8.35342 0.857602 8.13282C0.761243 7.93019 0.666016 7.67447 0.666016 7.41667C0.666016 7.15887 0.761243 6.90315 0.857602 6.70052C0.962506 6.47992 1.10825 6.24199 1.28301 5.99952C1.63322 5.51363 2.12878 4.96963 2.7332 4.45935ZM2.00408 7.41667C2.01082 7.43924 2.02638 7.4859 2.06172 7.56021C2.12333 7.68976 2.22316 7.85786 2.36467 8.0542C2.64699 8.44591 3.06672 8.91059 3.59333 9.35517C4.65637 10.2526 6.07128 11 7.58268 11C9.09409 11 10.509 10.2526 11.572 9.35517C12.0986 8.91059 12.5184 8.44591 12.8007 8.0542C12.9422 7.85786 13.042 7.68976 13.1036 7.56021C13.139 7.4859 13.1545 7.43924 13.1613 7.41666C13.1545 7.39409 13.139 7.34743 13.1036 7.27312C13.042 7.14357 12.9422 6.97547 12.8007 6.77913C12.5184 6.38742 12.0986 5.92274 11.572 5.47816C11.3484 5.28939 11.1093 5.10726 10.8569 4.93733C10.9496 5.24756 10.9993 5.5763 10.9993 5.91667C10.9993 7.80364 9.46966 9.33333 7.58268 9.33333C5.69571 9.33333 4.16602 7.80364 4.16602 5.91667C4.16602 5.5763 4.21578 5.24756 4.30844 4.93733C4.05609 5.10726 3.81692 5.28939 3.59333 5.47816C3.06672 5.92274 2.64699 6.38742 2.36467 6.77913C2.22316 6.97547 2.12333 7.14357 2.06172 7.27312C2.02638 7.34743 2.01082 7.39409 2.00408 7.41667ZM5.49935 5.91667C5.49935 4.76607 6.43209 3.83333 7.58268 3.83333C8.73328 3.83333 9.66602 4.76607 9.66602 5.91667C9.66602 7.06726 8.73328 8 7.58268 8C6.43209 8 5.49935 7.06726 5.49935 5.91667Z"/></symbol><symbol viewBox="0 0 16 12" id="svg-yt"><path fill-rule="evenodd" clip-rule="evenodd" d="M14.2602 0.74304C14.9455 0.92761 15.4859 1.46789 15.6703 2.15331C16.0131 3.40526 15.9999 6.01486 15.9999 6.01486C15.9999 6.01486 15.9999 8.61117 15.6705 9.86323C15.4859 10.5485 14.9456 11.0889 14.2602 11.2734C13.0081 11.603 7.99997 11.603 7.99997 11.603C7.99997 11.603 3.00487 11.603 1.73974 11.2603C1.05432 11.0758 0.514036 10.5354 0.329466 9.85005C0 8.61117 0 6.00168 0 6.00168C0 6.00168 0 3.40526 0.329466 2.15331C0.513914 1.46801 1.0675 0.914426 1.73962 0.729979C2.99169 0.400391 7.99984 0.400391 7.99984 0.400391C7.99984 0.400391 13.0081 0.400391 14.2602 0.74304ZM10.5699 6.0017L6.40525 8.40039V3.60302L10.5699 6.0017Z"/></symbol></svg>