<svg width="16" height="15" viewBox="0 0 16 15" fill="none" xmlns="http://www.w3.org/2000/svg">
<path fill-rule="evenodd" clip-rule="evenodd" d="M9.45324 1.66634C9.36022 1.66634 9.274 1.71578 9.22696 1.79638L9.22286 1.80341L6.16536 6.76018V13.333H11.8892C12.0121 13.333 12.1183 13.2477 12.1449 13.128L12.1472 13.1176L13.8472 6.47785C13.8783 6.31692 13.755 6.16634 13.59 6.16634H10.9987C10.5646 6.16634 10.1253 6.0213 9.80549 5.70916C9.46928 5.38101 9.31341 4.91106 9.41344 4.40475L9.89267 1.97903C9.92467 1.81708 9.80073 1.66634 9.63578 1.66634H9.45324ZM4.83203 13.333V7.23777H2.46972C2.32593 7.23777 2.20893 7.35378 2.20782 7.49774C2.20782 7.49775 2.20782 7.49774 2.20782 7.49774L2.16537 13.0692C2.16426 13.2144 2.2818 13.333 2.42721 13.333H4.83203ZM5.12663 5.90444L8.08008 1.11634C8.36696 0.63124 8.88885 0.333008 9.45324 0.333008H9.63578C10.6409 0.333008 11.3955 1.25139 11.2007 2.23746L10.7215 4.66317C10.713 4.70634 10.7185 4.72596 10.7198 4.73026C10.7213 4.73506 10.7246 4.74304 10.7368 4.75498C10.7647 4.7822 10.8477 4.83301 10.9987 4.83301H13.59C14.6107 4.83301 15.3686 5.77825 15.1473 6.77441L15.1449 6.78481L13.4438 13.429C13.2773 14.1528 12.6328 14.6663 11.8892 14.6663H2.42721C1.54152 14.6663 0.825291 13.9447 0.832079 13.059C0.832079 13.059 0.832079 13.059 0.832079 13.059L0.874528 7.48757C0.881245 6.61137 1.59339 5.90444 2.46972 5.90444H5.12663Z" fill="#03CEA4"/>
</svg>
