<svg width="24" height="24" viewBox="0 0 24 24" fill="none" xmlns="http://www.w3.org/2000/svg">
<path fill-rule="evenodd" clip-rule="evenodd" d="M2.10156 2C2.65385 2 3.10156 2.44772 3.10156 3V7.43632C4.75959 4.20928 8.12154 2 12.0015 2C16.3572 2 20.0599 4.78413 21.4323 8.66675C21.6163 9.18747 21.3434 9.75879 20.8227 9.94284C20.302 10.1269 19.7306 9.85396 19.5466 9.33325C18.4479 6.22472 15.4832 4 12.0015 4C9.04152 4 6.45522 5.60799 5.0715 8H8.10153C8.65381 8 9.10153 8.44772 9.10153 9C9.10153 9.55228 8.65381 10 8.10153 10H2.10156C1.54928 10 1.10156 9.55228 1.10156 9V3C1.10156 2.44772 1.54928 2 2.10156 2Z" fill="#424551"/>
<path fill-rule="evenodd" clip-rule="evenodd" d="M3.17859 14.0572C3.69931 13.8731 4.27063 14.146 4.45468 14.6668C5.55339 17.7753 8.51804 20 11.9997 20C14.9597 20 17.546 18.392 18.9298 16H15.8997C15.3475 16 14.8997 15.5523 14.8997 15C14.8997 14.4477 15.3475 14 15.8997 14H21.8997C22.452 14 22.8997 14.4477 22.8997 15V21C22.8997 21.5523 22.452 22 21.8997 22C21.3474 22 20.8997 21.5523 20.8997 21V16.5637C19.2417 19.7907 15.8797 22 11.9997 22C7.6441 22 3.94131 19.2159 2.569 15.3332C2.38495 14.8125 2.65788 14.2412 3.17859 14.0572Z" fill="#424551"/>
</svg>
