<svg width="14" height="13" viewBox="0 0 14 13" fill="none" xmlns="http://www.w3.org/2000/svg">
<path fill-rule="evenodd" clip-rule="evenodd" d="M5.93208 1.28492C6.33735 0.350338 7.66273 0.350337 8.068 1.28492L9.29394 4.11205L12.3615 4.40436C13.3756 4.50099 13.7852 5.7615 13.0216 6.43573L10.7116 8.4753L11.3816 11.4831C11.603 12.4774 10.5308 13.2564 9.65359 12.7385L7.00004 11.1719L4.34649 12.7385C3.46929 13.2564 2.39703 12.4774 2.6185 11.4831L3.28844 8.4753L0.978516 6.43573C0.214907 5.7615 0.62447 4.50099 1.63855 4.40436L4.70614 4.11205L5.93208 1.28492ZM8.22598 4.57515L7.00004 1.74803L5.7741 4.57515C5.60543 4.96412 5.23862 5.23063 4.81656 5.27084L1.74897 5.56315L4.05889 7.60272C4.3767 7.88334 4.51681 8.31455 4.42464 8.72837L3.7547 11.7362L6.40825 10.1696C6.77334 9.95401 7.22674 9.95401 7.59183 10.1696L10.2454 11.7362L9.57544 8.72837C9.48327 8.31455 9.62338 7.88334 9.94119 7.60272L12.2511 5.56315L9.18352 5.27084C8.76146 5.23063 8.39465 4.96412 8.22598 4.57515Z" fill="#B3B7BC"/>
</svg>
